{"glyphs":{"0":{"ha":817,"x_min":0,"x_max":0,"o":"m 408 54 b 604 513 525 54 604 254 b 408 961 604 771 525 961 b 213 513 292 961 213 771 b 408 54 213 254 292 54 m 50 513 b 408 1028 50 808 192 1028 b 767 513 625 1028 767 808 b 408 -12 767 215 625 -12 b 50 513 192 -12 50 215 "},"1":{"ha":624,"x_min":0,"x_max":0,"o":"m 43 835 l 432 1028 l 418 533 l 429 100 l 606 0 l 96 0 l 272 100 l 283 533 l 274 832 l 43 832 "},"2":{"ha":800,"x_min":0,"x_max":0,"o":"m 710 760 b 288 129 710 600 575 406 l 749 129 l 651 0 l 51 0 l 51 3 l 200 146 b 544 693 453 390 544 553 b 349 901 544 818 463 901 b 86 731 269 901 169 861 l 83 731 b 421 1028 135 914 256 1028 b 710 760 578 1028 710 914 "},"3":{"ha":728,"x_min":0,"x_max":0,"o":"m 71 258 l 171 75 b 275 60 201 67 238 60 b 519 272 419 60 519 156 b 219 508 519 393 414 508 l 161 508 l 160 513 l 196 526 b 474 753 383 599 474 664 b 304 901 474 825 414 901 b 57 769 219 901 121 856 l 54 769 b 374 1028 90 904 207 1028 b 611 825 521 1028 611 933 b 396 578 611 721 531 633 b 664 317 585 564 664 435 b 286 -14 664 163 526 -14 b 71 21 207 -14 113 7 "},"4":{"ha":931,"x_min":0,"x_max":0,"o":"m 649 246 l 653 100 l 803 0 l 347 0 l 497 100 l 500 246 l 22 246 l 656 1035 l 642 533 l 647 333 l 896 333 l 896 246 m 503 333 l 507 533 l 501 735 l 183 333 "},"5":{"ha":775,"x_min":0,"x_max":0,"o":"m 719 1014 l 653 875 l 261 875 l 229 689 b 346 708 265 703 301 708 b 675 382 532 708 675 583 b 297 -14 675 178 544 -14 b 75 42 219 -14 136 7 l 75 285 l 175 82 b 297 58 208 68 250 58 b 547 324 433 58 547 153 b 286 575 547 492 425 575 b 143 543 233 575 172 563 l 213 1001 l 213 1014 "},"6":{"ha":801,"x_min":0,"x_max":0,"o":"m 396 -14 b 69 371 200 -14 69 146 b 775 1028 69 686 340 1004 l 775 1025 b 274 586 529 950 363 797 b 438 664 315 635 367 664 b 707 328 600 664 707 490 b 396 -14 707 151 582 -14 m 228 371 b 415 49 228 172 317 50 b 550 304 514 47 550 168 b 376 588 550 467 497 588 b 257 536 331 588 286 569 b 228 371 236 467 228 419 m 235 501 l 235 500 "},"7":{"ha":808,"x_min":0,"x_max":0,"o":"m 338 0 l 206 0 l 636 890 l 183 883 l 69 735 l 67 913 l 67 1014 l 757 1014 "},"8":{"ha":781,"x_min":0,"x_max":0,"o":"m 718 272 b 392 -14 718 114 583 -14 b 63 261 222 -14 63 104 b 264 515 63 393 182 478 b 97 767 136 589 97 682 b 386 1028 97 921 224 1028 b 665 796 540 1028 665 929 b 488 569 665 672 553 600 b 718 272 583 528 718 428 m 181 275 b 399 61 181 153 285 61 b 585 232 504 61 585 144 b 314 490 585 338 465 426 b 181 275 224 435 181 351 m 232 811 b 432 594 232 703 351 632 b 547 790 515 636 547 717 b 389 954 547 892 478 954 b 232 811 299 954 232 893 "},"9":{"ha":786,"x_min":0,"x_max":0,"o":"m 410 1028 b 736 643 606 1028 736 868 b 31 -14 736 328 465 10 l 31 -11 b 532 428 276 64 443 217 b 368 350 490 379 439 350 b 99 686 206 350 99 524 b 410 1028 99 863 224 1028 m 256 710 b 429 426 256 547 308 426 b 549 478 475 426 519 444 b 578 643 569 547 578 594 b 390 965 578 842 489 964 b 256 710 292 967 256 846 m 571 514 l 571 513 "}," ":{"ha":274,"x_min":0,"x_max":0,"o":""},"A":{"ha":1014,"x_min":0,"x_max":0,"o":"m 879 90 l 1024 0 l 611 0 l 708 90 l 631 285 l 279 285 l 207 90 l 307 0 l -11 0 l 129 90 l 486 1043 m 601 356 l 447 738 l 306 356 "},"Á":{"ha":1014,"x_min":0,"x_max":0,"o":"m 879 90 l 1024 0 l 611 0 l 708 90 l 631 285 l 279 285 l 207 90 l 307 0 l -11 0 l 129 90 l 486 1043 m 601 356 l 447 738 l 306 356 m 533 1319 l 704 1319 l 479 1089 l 439 1089 "},"Â":{"ha":1014,"x_min":0,"x_max":0,"o":"m 879 90 l 1024 0 l 611 0 l 708 90 l 631 285 l 279 285 l 207 90 l 307 0 l -11 0 l 129 90 l 486 1043 m 428 1319 l 556 1319 l 696 1089 l 669 1089 l 485 1215 l 297 1089 l 271 1089 m 601 356 l 447 738 l 306 356 "},"Ä":{"ha":1014,"x_min":0,"x_max":0,"o":"m 879 90 l 1024 0 l 611 0 l 708 90 l 631 285 l 279 285 l 207 90 l 307 0 l -11 0 l 129 90 l 486 1043 m 357 1267 l 457 1171 l 357 1072 l 256 1171 m 601 356 l 447 738 l 306 356 m 621 1267 l 721 1171 l 621 1072 l 519 1171 "},"À":{"ha":1014,"x_min":0,"x_max":0,"o":"m 879 90 l 1024 0 l 611 0 l 708 90 l 631 285 l 279 285 l 207 90 l 307 0 l -11 0 l 129 90 l 486 1043 m 468 1321 l 563 1090 l 522 1090 l 297 1321 m 601 356 l 447 738 l 306 356 "},"B":{"ha":888,"x_min":0,"x_max":0,"o":"m 339 556 l 450 556 b 631 760 554 556 631 639 b 457 947 631 883 551 947 l 350 947 m 186 108 l 194 533 l 186 906 l 50 1014 l 486 1014 b 797 776 667 1014 797 924 b 604 540 797 628 671 551 b 835 276 711 529 835 433 b 479 0 835 107 697 0 l 50 0 m 350 67 l 453 67 b 661 267 578 67 661 144 b 440 489 661 401 569 489 l 339 489 "},"C":{"ha":985,"x_min":0,"x_max":0,"o":"m 885 701 l 758 915 b 594 950 703 938 650 950 b 197 546 361 950 197 790 b 578 144 197 304 351 144 b 888 299 735 144 840 235 l 899 293 b 528 -14 871 153 761 -14 b 50 507 256 -14 50 190 b 599 1028 50 814 267 1028 b 885 951 707 1028 803 997 "},"Ć":{"ha":985,"x_min":0,"x_max":0,"o":"m 885 701 l 758 915 b 594 950 703 938 650 950 b 197 546 361 950 197 790 b 578 144 197 304 351 144 b 888 299 735 144 840 235 l 899 293 b 528 -14 871 153 761 -14 b 50 507 256 -14 50 190 b 599 1028 50 814 267 1028 b 885 951 707 1028 803 997 m 621 1319 l 792 1319 l 567 1089 l 526 1089 "},"Č":{"ha":985,"x_min":0,"x_max":0,"o":"m 885 701 l 758 915 b 594 950 703 938 650 950 b 197 546 361 950 197 790 b 578 144 197 304 351 144 b 888 299 735 144 840 235 l 899 293 b 528 -14 871 153 761 -14 b 50 507 256 -14 50 190 b 599 1028 50 814 267 1028 b 885 951 707 1028 803 997 m 382 1315 l 567 1189 l 754 1315 l 781 1315 l 624 1085 l 496 1085 l 356 1315 "},"Ç":{"ha":985,"x_min":0,"x_max":0,"o":"m 885 701 l 758 915 b 594 950 703 938 650 950 b 197 546 361 950 197 790 b 578 144 197 304 351 144 b 888 299 735 144 840 235 l 899 293 b 528 -14 871 153 761 -14 l 522 -14 l 497 -82 b 619 -181 554 -81 619 -114 b 493 -292 619 -240 567 -292 b 365 -217 428 -292 382 -249 l 367 -215 b 451 -233 389 -226 422 -233 b 533 -178 497 -233 533 -215 b 465 -126 533 -146 506 -126 b 414 -135 454 -126 439 -128 l 465 -10 b 50 507 225 19 50 215 b 599 1028 50 814 267 1028 b 885 951 707 1028 803 997 "},"D":{"ha":1126,"x_min":0,"x_max":0,"o":"m 538 67 b 910 485 772 67 910 275 b 472 947 910 771 735 947 l 350 947 l 339 533 l 350 67 l 538 67 m 186 108 l 194 533 l 186 906 l 50 1014 l 536 1014 b 1085 524 888 1014 1085 803 b 594 0 1085 247 878 0 l 50 0 "},"Ǳ":{"ha":5564,"x_min":0,"x_max":0,"o":"m 599 274 b 863 538 760 274 863 403 b 597 803 863 674 763 803 b 331 539 438 803 331 675 b 599 274 331 404 432 274 m 50 507 b 599 1028 50 814 267 1028 b 885 951 707 1028 803 997 l 885 701 l 758 915 b 594 950 703 938 650 950 b 197 546 361 950 197 790 b 578 144 197 304 351 144 b 888 299 735 144 840 235 l 899 293 b 528 -14 871 153 761 -14 b 50 507 256 -14 50 190 m 468 556 b 589 744 468 658 503 744 b 725 521 675 744 725 658 b 608 332 725 419 692 332 b 468 556 518 332 468 419 m 1063 -214 l 1074 207 l 1063 583 l 926 692 l 1569 692 l 1569 463 l 1453 624 l 1226 625 l 1218 236 l 1428 238 l 1518 372 l 1518 29 l 1428 164 l 1218 165 l 1226 -251 l 1456 -250 l 1572 -89 l 1572 -322 l 926 -322 m 1672 108 l 1764 897 l 1631 1014 l 1926 1014 l 2200 299 l 2461 1014 l 2756 1014 l 2625 906 l 2749 108 l 2899 0 l 2469 0 l 2586 108 l 2476 821 l 2168 -14 l 2163 -14 l 1832 811 l 1754 108 l 1875 0 l 1526 0 m 2974 -214 l 2985 207 l 2974 583 l 2838 692 l 3481 692 l 3481 463 l 3364 624 l 3138 625 l 3129 236 l 3339 238 l 3429 372 l 3429 29 l 3339 164 l 3129 165 l 3138 -251 l 3367 -250 l 3483 -89 l 3483 -322 l 2838 -322 m 3319 1014 l 4144 1014 l 4144 738 l 4018 940 l 3814 944 l 3801 533 l 3813 108 l 3949 0 l 3510 0 l 3646 108 l 3657 533 l 3644 944 l 3446 940 l 3319 738 m 4044 -214 l 4056 207 l 4044 583 l 3908 692 l 4551 692 l 4551 463 l 4435 624 l 4208 625 l 4200 236 l 4410 238 l 4500 372 l 4500 29 l 4410 164 l 4200 165 l 4208 -251 l 4438 -250 l 4554 -89 l 4554 -322 l 3908 -322 m 4682 108 l 4693 533 l 4682 906 l 4546 1014 l 5024 1014 b 5357 760 5210 1014 5357 928 b 5093 475 5357 639 5286 514 l 5401 119 l 5558 0 l 5164 0 l 5211 108 l 4925 465 l 4839 465 l 4849 108 l 4985 0 l 4546 0 m 4951 535 b 5188 753 5088 535 5188 606 b 4975 943 5188 869 5104 943 l 4850 943 l 4838 535 "},"Ď":{"ha":1126,"x_min":0,"x_max":0,"o":"m 538 67 b 910 485 772 67 910 275 b 472 947 910 771 735 947 l 350 947 l 339 533 l 350 67 l 538 67 m 186 108 l 194 533 l 186 906 l 50 1014 l 536 1014 b 1085 524 888 1014 1085 803 b 594 0 1085 247 878 0 l 50 0 "},"E":{"ha":786,"x_min":0,"x_max":0,"o":"m 576 946 l 350 947 l 342 558 l 551 560 l 642 694 l 642 351 l 551 486 l 342 488 l 350 71 l 579 72 l 696 233 l 696 0 l 50 0 l 186 108 l 197 529 l 186 906 l 50 1014 l 693 1014 l 693 785 "},"É":{"ha":794,"x_min":0,"x_max":0,"o":"m 576 946 l 350 947 l 342 558 l 551 560 l 642 694 l 642 351 l 551 486 l 342 488 l 350 71 l 579 72 l 696 233 l 696 0 l 50 0 l 186 108 l 197 529 l 186 906 l 50 1014 l 693 1014 l 693 785 m 449 1319 l 619 1319 l 394 1089 l 354 1089 "},"Ě":{"ha":786,"x_min":0,"x_max":0,"o":"m 576 946 l 350 947 l 342 558 l 551 560 l 642 694 l 642 351 l 551 486 l 342 488 l 350 71 l 579 72 l 696 233 l 696 0 l 50 0 l 186 108 l 197 529 l 186 906 l 50 1014 l 693 1014 l 693 785 m 242 1315 l 426 1189 l 614 1315 l 640 1315 l 483 1085 l 356 1085 l 215 1315 "},"Ë":{"ha":786,"x_min":0,"x_max":0,"o":"m 576 946 l 350 947 l 342 558 l 551 560 l 642 694 l 642 351 l 551 486 l 342 488 l 350 71 l 579 72 l 696 233 l 696 0 l 50 0 l 186 108 l 197 529 l 186 906 l 50 1014 l 693 1014 l 693 785 m 263 1267 l 363 1171 l 263 1072 l 161 1171 m 526 1267 l 626 1171 l 526 1072 l 425 1171 "},"È":{"ha":786,"x_min":0,"x_max":0,"o":"m 576 946 l 350 947 l 342 558 l 551 560 l 642 694 l 642 351 l 551 486 l 342 488 l 350 71 l 579 72 l 696 233 l 696 0 l 50 0 l 186 108 l 197 529 l 186 906 l 50 1014 l 693 1014 l 693 785 m 374 1321 l 468 1090 l 428 1090 l 203 1321 "},"F":{"ha":775,"x_min":0,"x_max":0,"o":"m 568 944 l 344 946 l 333 554 l 539 556 l 629 690 l 629 349 l 539 483 l 333 485 l 342 108 l 478 0 l 50 0 l 186 108 l 197 529 l 186 906 l 50 1014 l 685 1014 l 685 783 "},"G":{"ha":1096,"x_min":0,"x_max":0,"o":"m 647 531 l 1092 531 l 938 422 l 933 369 l 944 51 b 632 -12 879 24 771 -12 b 50 506 289 -12 50 207 b 628 1028 50 793 268 1028 b 944 953 746 1028 853 999 l 944 699 l 818 910 b 614 950 758 933 689 950 b 226 533 364 950 226 774 b 679 83 226 290 397 83 b 796 96 722 83 761 88 l 806 369 l 801 422 "},"H":{"ha":1247,"x_min":0,"x_max":0,"o":"m 186 108 l 197 533 l 186 906 l 50 1014 l 489 1014 l 353 906 l 343 567 l 904 567 l 894 906 l 758 1014 l 1197 1014 l 1061 906 l 1050 533 l 1061 108 l 1197 0 l 758 0 l 894 108 l 904 492 l 343 492 l 353 108 l 489 0 l 50 0 "},"I":{"ha":539,"x_min":0,"x_max":0,"o":"m 186 108 l 197 533 l 186 906 l 50 1014 l 489 1014 l 353 906 l 342 533 l 353 108 l 489 0 l 50 0 "},"Í":{"ha":539,"x_min":0,"x_max":0,"o":"m 186 108 l 197 533 l 186 906 l 50 1014 l 489 1014 l 353 906 l 342 533 l 353 108 l 489 0 l 50 0 m 314 1319 l 485 1319 l 260 1089 l 219 1089 "},"Î":{"ha":539,"x_min":0,"x_max":0,"o":"m 186 108 l 197 533 l 186 906 l 50 1014 l 489 1014 l 353 906 l 342 533 l 353 108 l 489 0 l 50 0 m 208 1319 l 336 1319 l 476 1089 l 450 1089 l 265 1215 l 78 1089 l 51 1089 "},"Ì":{"ha":539,"x_min":0,"x_max":0,"o":"m 186 108 l 197 533 l 186 906 l 50 1014 l 489 1014 l 353 906 l 342 533 l 353 108 l 489 0 l 50 0 m 249 1321 l 343 1090 l 303 1090 l 78 1321 "},"J":{"ha":533,"x_min":0,"x_max":0,"o":"m 343 171 b 29 -344 343 -121 210 -218 l 21 -332 b 178 35 143 -224 169 -126 l 190 533 l 179 906 l 29 1014 l 496 1014 l 346 906 l 335 533 l 343 179 l 343 171 "},"K":{"ha":1110,"x_min":0,"x_max":0,"o":"m 186 108 l 197 533 l 186 906 l 50 1014 l 489 1014 l 353 906 l 342 533 l 346 379 l 761 915 l 653 1014 l 1068 1014 l 843 897 l 618 610 l 950 122 l 1086 -1 l 697 -1 l 761 107 l 519 482 l 349 264 l 353 108 l 489 0 l 50 0 "},"L":{"ha":775,"x_min":0,"x_max":0,"o":"m 186 108 l 197 533 l 186 906 l 50 1014 l 489 1014 l 353 906 l 342 533 l 354 67 l 599 68 l 733 269 l 733 0 l 50 0 "},"M":{"ha":1406,"x_min":0,"x_max":0,"o":"m 322 811 l 244 108 l 365 0 l 17 0 l 163 108 l 254 897 l 121 1014 l 417 1014 l 690 299 l 951 1014 l 1246 1014 l 1115 906 l 1239 108 l 1389 0 l 960 0 l 1076 108 l 967 821 l 658 -14 l 653 -14 "},"N":{"ha":1264,"x_min":0,"x_max":0,"o":"m 1081 906 l 1081 -22 l 263 796 l 285 108 l 421 0 l 54 0 l 188 108 l 188 869 l 50 1014 l 274 1014 l 1006 272 l 985 906 l 849 1014 l 1214 1014 "},"Ñ":{"ha":1264,"x_min":0,"x_max":0,"o":"m 1081 906 l 1081 -22 l 263 796 l 285 108 l 421 0 l 54 0 l 188 108 l 188 869 l 50 1014 l 274 1014 l 1006 272 l 985 906 l 849 1014 l 1214 1014 "},"O":{"ha":1153,"x_min":0,"x_max":0,"o":"m 560 950 b 226 532 331 950 226 767 b 593 67 225 249 364 67 b 926 485 822 67 926 249 b 560 950 928 767 789 950 m 50 497 b 583 1028 50 785 247 1028 b 1103 519 896 1028 1103 804 b 571 -12 1103 231 907 -12 b 50 497 258 -12 50 211 "},"Ó":{"ha":1153,"x_min":0,"x_max":0,"o":"m 560 950 b 226 532 331 950 226 767 b 593 67 225 249 364 67 b 926 485 822 67 926 249 b 560 950 928 767 789 950 m 50 497 b 583 1028 50 785 247 1028 b 1103 519 896 1028 1103 804 b 571 -12 1103 231 907 -12 b 50 497 258 -12 50 211 m 621 1319 l 792 1319 l 567 1089 l 526 1089 "},"Ǒ":{"ha":1153,"x_min":0,"x_max":0,"o":"m 560 950 b 226 532 331 950 226 767 b 593 67 225 249 364 67 b 926 485 822 67 926 249 b 560 950 928 767 789 950 m 50 497 b 583 1028 50 785 247 1028 b 1103 519 896 1028 1103 804 b 571 -12 1103 231 907 -12 b 50 497 258 -12 50 211 m 382 1315 l 567 1189 l 754 1315 l 781 1315 l 624 1085 l 496 1085 l 356 1315 "},"Ô":{"ha":1153,"x_min":0,"x_max":0,"o":"m 560 950 b 226 532 331 950 226 767 b 593 67 225 249 364 67 b 926 485 822 67 926 249 b 560 950 928 767 789 950 m 50 497 b 583 1028 50 785 247 1028 b 1103 519 896 1028 1103 804 b 571 -12 1103 231 907 -12 b 50 497 258 -12 50 211 m 515 1319 l 643 1319 l 783 1089 l 757 1089 l 572 1215 l 385 1089 l 358 1089 "},"Ö":{"ha":1153,"x_min":0,"x_max":0,"o":"m 560 950 b 226 532 331 950 226 767 b 593 67 225 249 364 67 b 926 485 822 67 926 249 b 560 950 928 767 789 950 m 50 497 b 583 1028 50 785 247 1028 b 1103 519 896 1028 1103 804 b 571 -12 1103 231 907 -12 b 50 497 258 -12 50 211 m 444 1267 l 544 1171 l 444 1072 l 343 1171 m 708 1267 l 808 1171 l 708 1072 l 607 1171 "},"Ò":{"ha":1153,"x_min":0,"x_max":0,"o":"m 560 950 b 226 532 331 950 226 767 b 593 67 225 249 364 67 b 926 485 822 67 926 249 b 560 950 928 767 789 950 m 50 497 b 583 1028 50 785 247 1028 b 1103 519 896 1028 1103 804 b 571 -12 1103 231 907 -12 b 50 497 258 -12 50 211 m 556 1321 l 650 1090 l 610 1090 l 385 1321 "},"P":{"ha":875,"x_min":0,"x_max":0,"o":"m 186 108 l 197 533 l 186 906 l 50 1014 l 518 1014 b 840 750 722 1014 840 910 b 485 456 840 565 689 456 b 343 469 410 456 360 465 l 353 108 l 489 0 l 50 0 m 342 533 b 451 522 357 528 396 522 b 671 739 597 522 671 600 b 475 949 671 863 607 949 l 354 949 l 342 533 "},"Q":{"ha":1153,"x_min":0,"x_max":0,"o":"m 560 950 b 226 532 331 950 226 767 b 593 67 225 249 364 67 b 926 485 822 67 926 249 b 560 950 928 767 789 950 m 50 497 b 583 1028 50 785 247 1028 b 1103 519 896 1028 1103 804 b 697 0 1103 269 956 53 l 1083 -256 l 825 -256 l 589 -12 l 571 -12 b 50 497 258 -12 50 211 "},"R":{"ha":1068,"x_min":0,"x_max":0,"o":"m 186 108 l 197 533 l 186 906 l 50 1014 l 528 1014 b 861 760 714 1014 861 928 b 597 475 861 639 790 514 l 906 119 l 1063 0 l 668 0 l 715 108 l 429 465 l 343 465 l 353 108 l 489 0 l 50 0 m 456 535 b 692 753 592 535 692 606 b 479 943 692 869 608 943 l 354 943 l 342 535 "},"S":{"ha":707,"x_min":0,"x_max":0,"o":"m 74 749 b 407 1028 74 906 201 1028 b 596 992 472 1028 535 1015 l 596 707 l 451 951 b 393 957 431 956 411 957 b 217 786 285 957 217 876 b 313 642 217 707 271 667 b 507 538 367 608 454 571 b 649 288 568 499 649 424 b 304 -14 649 124 521 -14 b 85 31 221 -14 136 8 l 85 346 l 239 65 b 304 57 263 60 285 57 b 506 243 418 57 506 136 b 428 390 506 321 464 364 b 225 504 374 429 294 458 b 74 749 129 567 74 644 "},"T":{"ha":993,"x_min":0,"x_max":0,"o":"m 83 738 l 83 1014 l 908 1014 l 908 738 l 782 940 l 578 944 l 565 533 l 576 108 l 713 0 l 274 0 l 410 108 l 421 533 l 408 944 l 210 940 "},"U":{"ha":1139,"x_min":0,"x_max":0,"o":"m 43 1014 l 474 1014 l 338 906 l 321 342 b 596 94 315 171 438 94 b 886 375 760 94 893 181 l 869 906 l 732 1014 l 1099 1014 l 965 906 l 965 326 b 574 -14 965 107 803 -14 b 176 326 354 -14 176 108 l 176 906 "},"Ú":{"ha":1139,"x_min":0,"x_max":0,"o":"m 43 1014 l 474 1014 l 338 906 l 321 342 b 596 94 315 171 438 94 b 886 375 760 94 893 181 l 869 906 l 732 1014 l 1099 1014 l 965 906 l 965 326 b 574 -14 965 107 803 -14 b 176 326 354 -14 176 108 l 176 906 m 618 1319 l 789 1319 l 564 1089 l 524 1089 "},"Ü":{"ha":1139,"x_min":0,"x_max":0,"o":"m 43 1014 l 474 1014 l 338 906 l 321 342 b 596 94 315 171 438 94 b 886 375 760 94 893 181 l 869 906 l 732 1014 l 1099 1014 l 965 906 l 965 326 b 574 -14 965 107 803 -14 b 176 326 354 -14 176 108 l 176 906 m 442 1267 l 542 1171 l 442 1072 l 340 1171 m 706 1267 l 806 1171 l 706 1072 l 604 1171 "},"Ù":{"ha":1140,"x_min":0,"x_max":0,"o":"m 43 1014 l 474 1014 l 338 906 l 321 342 b 596 94 315 171 438 94 b 886 375 760 94 893 181 l 869 906 l 732 1014 l 1099 1014 l 965 906 l 965 326 b 574 -14 965 107 803 -14 b 176 326 354 -14 176 108 l 176 906 m 578 1321 l 672 1090 l 632 1090 l 407 1321 "},"V":{"ha":1161,"x_min":0,"x_max":0,"o":"m 183 901 l 13 1014 l 486 1014 l 361 906 l 643 276 l 900 906 l 771 1014 l 1149 1014 l 982 901 l 603 -14 l 599 -14 "},"W":{"ha":1565,"x_min":0,"x_max":0,"o":"m 179 924 l 13 1014 l 469 1014 l 356 924 l 572 329 l 756 869 l 703 1014 l 864 1014 l 1113 321 l 1307 924 l 1189 1014 l 1553 1014 l 1390 924 l 1082 -10 l 1078 -10 l 797 757 l 531 -10 l 526 -10 "},"X":{"ha":1082,"x_min":0,"x_max":0,"o":"m 36 1014 l 478 1014 l 360 915 l 561 618 l 774 915 l 631 1014 l 1029 1014 l 861 910 l 608 557 l 911 113 l 1068 0 l 626 0 l 742 104 l 515 438 l 276 104 l 415 0 l 15 0 l 183 104 l 467 499 l 185 915 "},"Y":{"ha":1076,"x_min":0,"x_max":0,"o":"m 165 910 l 7 1014 l 465 1014 l 329 915 l 583 401 l 829 915 l 663 1014 l 1071 1014 l 913 910 l 622 322 l 631 108 l 768 0 l 328 0 l 464 108 l 469 303 "},"Z":{"ha":875,"x_min":0,"x_max":0,"o":"m 826 1014 l 826 1006 l 265 68 l 667 74 l 801 301 l 801 0 l 49 0 l 49 8 l 606 946 l 235 940 l 99 739 l 99 1014 "},"a":{"ha":749,"x_min":0,"x_max":0,"o":"m 463 550 b 363 647 461 604 422 647 b 260 550 306 647 260 606 l 260 494 l 92 436 b 403 708 103 578 228 708 b 607 533 538 708 610 631 l 601 369 l 607 110 l 663 110 b 715 110 697 110 715 110 l 721 110 b 583 -8 714 50 656 -8 b 463 110 526 -8 469 26 b 269 -14 428 40 361 -14 b 90 154 160 -14 90 65 b 468 417 90 285 235 342 l 463 550 m 240 189 b 336 104 240 140 276 104 b 464 168 390 104 432 132 l 469 361 b 240 189 347 322 240 274 "},"á":{"ha":749,"x_min":0,"x_max":0,"o":"m 463 550 b 363 647 461 604 422 647 b 260 550 306 647 260 606 l 260 494 l 92 436 b 403 708 103 578 228 708 b 607 533 538 708 610 631 l 601 369 l 607 110 l 663 110 b 715 110 697 110 715 110 l 721 110 b 583 -8 714 50 656 -8 b 463 110 526 -8 469 26 b 269 -14 428 40 361 -14 b 90 154 160 -14 90 65 b 468 417 90 285 235 342 l 463 550 m 240 189 b 336 104 240 140 276 104 b 464 168 390 104 432 132 l 469 361 b 240 189 347 322 240 274 m 419 1000 l 590 1000 l 365 769 l 325 769 "},"â":{"ha":749,"x_min":0,"x_max":0,"o":"m 463 550 b 363 647 461 604 422 647 b 260 550 306 647 260 606 l 260 494 l 92 436 b 403 708 103 578 228 708 b 607 533 538 708 610 631 l 601 369 l 607 110 l 663 110 b 715 110 697 110 715 110 l 721 110 b 583 -8 714 50 656 -8 b 463 110 526 -8 469 26 b 269 -14 428 40 361 -14 b 90 154 160 -14 90 65 b 468 417 90 285 235 342 l 463 550 m 314 1000 l 442 1000 l 582 769 l 556 769 l 371 896 l 183 769 l 157 769 m 240 189 b 336 104 240 140 276 104 b 464 168 390 104 432 132 l 469 361 b 240 189 347 322 240 274 "},"ä":{"ha":749,"x_min":0,"x_max":0,"o":"m 463 550 b 363 647 461 604 422 647 b 260 550 306 647 260 606 l 260 494 l 92 436 b 403 708 103 578 228 708 b 607 533 538 708 610 631 l 601 369 l 607 110 l 663 110 b 715 110 697 110 715 110 l 721 110 b 583 -8 714 50 656 -8 b 463 110 526 -8 469 26 b 269 -14 428 40 361 -14 b 90 154 160 -14 90 65 b 468 417 90 285 235 342 l 463 550 m 243 947 l 343 851 l 243 753 l 142 851 m 240 189 b 336 104 240 140 276 104 b 464 168 390 104 432 132 l 469 361 b 240 189 347 322 240 274 m 507 947 l 607 851 l 507 753 l 406 851 "},"à":{"ha":749,"x_min":0,"x_max":0,"o":"m 463 550 b 363 647 461 604 422 647 b 260 550 306 647 260 606 l 260 494 l 92 436 b 403 708 103 578 228 708 b 607 533 538 708 610 631 l 601 369 l 607 110 l 663 110 b 715 110 697 110 715 110 l 721 110 b 583 -8 714 50 656 -8 b 463 110 526 -8 469 26 b 269 -14 428 40 361 -14 b 90 154 160 -14 90 65 b 468 417 90 285 235 342 l 463 550 m 354 1001 l 449 771 l 408 771 l 183 1001 m 240 189 b 336 104 240 140 276 104 b 464 168 390 104 432 132 l 469 361 b 240 189 347 322 240 274 "},"b":{"ha":853,"x_min":0,"x_max":0,"o":"m 261 556 b 483 708 288 615 349 708 b 797 364 651 708 797 567 b 429 -14 797 143 629 -14 b 236 38 364 -14 297 3 l 119 -14 l 131 533 l 121 944 l 19 985 l 275 1076 m 271 106 b 422 53 314 72 369 53 b 653 328 550 53 653 160 b 435 592 653 496 557 592 b 261 507 369 592 304 564 "},"c":{"ha":711,"x_min":0,"x_max":0,"o":"m 632 447 l 533 625 b 424 646 496 639 460 646 b 185 382 282 646 185 526 b 443 119 185 225 301 119 b 633 203 535 119 601 165 l 642 199 b 388 -14 622 101 544 -14 b 56 347 219 -14 56 128 b 424 708 56 558 201 708 b 632 656 507 708 575 689 "},"ć":{"ha":711,"x_min":0,"x_max":0,"o":"m 632 447 l 533 625 b 424 646 496 639 460 646 b 185 382 282 646 185 526 b 443 119 185 225 301 119 b 633 203 535 119 601 165 l 642 199 b 388 -14 622 101 544 -14 b 56 347 219 -14 56 128 b 424 708 56 558 201 708 b 632 656 507 708 575 689 m 400 1000 l 571 1000 l 346 769 l 306 769 "},"č":{"ha":711,"x_min":0,"x_max":0,"o":"m 632 447 l 533 625 b 424 646 496 639 460 646 b 185 382 282 646 185 526 b 443 119 185 225 301 119 b 633 203 535 119 601 165 l 642 199 b 388 -14 622 101 544 -14 b 56 347 219 -14 56 128 b 424 708 56 558 201 708 b 632 656 507 708 575 689 m 189 996 l 374 869 l 561 996 l 588 996 l 431 765 l 303 765 l 163 996 "},"ç":{"ha":711,"x_min":0,"x_max":0,"o":"m 632 447 l 533 625 b 424 646 496 639 460 646 b 185 382 282 646 185 526 b 443 119 185 225 301 119 b 633 203 535 119 601 165 l 642 199 b 389 -14 622 101 544 -12 l 364 -82 b 486 -181 421 -81 486 -114 b 360 -292 486 -240 433 -292 b 232 -217 294 -292 249 -249 l 233 -215 b 318 -233 256 -226 289 -233 b 400 -178 364 -233 400 -215 b 332 -126 400 -146 372 -126 b 281 -135 321 -126 306 -128 l 332 -8 b 56 347 185 18 56 151 b 424 708 56 558 201 708 b 632 656 507 708 575 689 "},"d":{"ha":860,"x_min":0,"x_max":0,"o":"m 479 985 l 735 1076 l 724 533 l 733 72 l 842 0 l 582 0 l 585 125 b 368 -14 554 65 493 -14 b 56 331 200 -14 56 128 b 417 708 56 551 217 708 b 589 671 474 708 533 696 l 582 944 m 200 367 b 422 103 200 199 300 103 b 586 181 485 103 544 129 l 593 533 l 592 581 b 424 642 546 619 482 642 b 200 367 296 642 200 535 "},"e":{"ha":697,"x_min":0,"x_max":0,"o":"m 379 -14 b 50 353 211 -14 50 128 b 381 708 50 564 197 708 b 644 413 586 708 668 540 l 182 413 b 181 383 181 403 181 393 b 436 119 181 226 294 119 b 632 204 529 119 600 165 l 640 200 b 379 -14 622 101 532 -14 m 497 476 b 365 649 506 567 456 649 b 189 469 271 649 210 575 "},"é":{"ha":697,"x_min":0,"x_max":0,"o":"m 379 -14 b 50 353 211 -14 50 128 b 381 708 50 564 197 708 b 644 413 586 708 668 540 l 182 413 b 181 383 181 403 181 393 b 436 119 181 226 294 119 b 632 204 529 119 600 165 l 640 200 b 379 -14 622 101 532 -14 m 497 476 b 365 649 506 567 456 649 b 189 469 271 649 210 575 m 390 1000 l 561 1000 l 336 769 l 296 769 "},"ě":{"ha":697,"x_min":0,"x_max":0,"o":"m 379 -14 b 50 353 211 -14 50 128 b 381 708 50 564 197 708 b 644 413 586 708 668 540 l 182 413 b 181 383 181 403 181 393 b 436 119 181 226 294 119 b 632 204 529 119 600 165 l 640 200 b 379 -14 622 101 532 -14 m 213 996 l 397 869 l 585 996 l 611 996 l 454 765 l 326 765 l 186 996 m 497 476 b 365 649 506 567 456 649 b 189 469 271 649 210 575 "},"ê":{"ha":697,"x_min":0,"x_max":0,"o":"m 379 -14 b 50 353 211 -14 50 128 b 381 708 50 564 197 708 b 644 413 586 708 668 540 l 182 413 b 181 383 181 403 181 393 b 436 119 181 226 294 119 b 632 204 529 119 600 165 l 640 200 b 379 -14 622 101 532 -14 m 326 1000 l 454 1000 l 594 769 l 568 769 l 383 896 l 196 769 l 169 769 m 497 476 b 365 649 506 567 456 649 b 189 469 271 649 210 575 "},"ë":{"ha":697,"x_min":0,"x_max":0,"o":"m 379 -14 b 50 353 211 -14 50 128 b 381 708 50 564 197 708 b 644 413 586 708 668 540 l 182 413 b 181 383 181 403 181 393 b 436 119 181 226 294 119 b 632 204 529 119 600 165 l 640 200 b 379 -14 622 101 532 -14 m 214 947 l 314 851 l 214 753 l 113 851 m 497 476 b 365 649 506 567 456 649 b 189 469 271 649 210 575 m 478 947 l 578 851 l 478 753 l 376 851 "},"è":{"ha":697,"x_min":0,"x_max":0,"o":"m 379 -14 b 50 353 211 -14 50 128 b 381 708 50 564 197 708 b 644 413 586 708 668 540 l 182 413 b 181 383 181 403 181 393 b 436 119 181 226 294 119 b 632 204 529 119 600 165 l 640 200 b 379 -14 622 101 532 -14 m 325 1001 l 419 771 l 379 771 l 154 1001 m 497 476 b 365 649 506 567 456 649 b 189 469 271 649 210 575 "},"f":{"ha":564,"x_min":0,"x_max":0,"o":"m 513 918 b 414 1018 513 974 468 1018 b 314 918 356 1018 315 974 l 310 694 l 510 694 l 510 600 l 307 600 l 306 533 l 315 72 l 424 3 l 294 0 l 57 0 l 165 72 l 175 533 l 175 600 l 24 600 l 24 603 l 121 694 l 174 694 l 172 806 b 433 1076 171 982 274 1076 b 642 925 569 1076 642 999 l 513 879 l 513 918 "},"g":{"ha":786,"x_min":0,"x_max":0,"o":"m 646 461 b 368 217 646 336 538 217 b 267 233 332 217 297 222 b 206 165 218 217 206 189 b 279 111 206 139 233 111 l 486 111 b 726 -85 688 111 726 -19 b 361 -347 726 -225 574 -347 b 47 -162 178 -347 47 -269 b 203 -14 47 -81 132 -37 b 83 107 150 -11 83 35 b 226 250 83 176 153 226 b 86 467 139 296 86 381 b 367 708 86 594 199 708 b 560 642 446 708 513 683 l 747 726 l 747 600 l 600 600 b 646 461 629 560 646 511 m 186 -136 b 408 -285 186 -203 244 -285 b 608 -131 528 -285 608 -215 b 481 -14 608 -86 578 -14 l 267 -14 b 186 -136 200 -42 186 -90 m 239 475 b 374 278 239 357 286 278 b 493 453 465 278 493 361 b 360 647 493 572 449 647 b 239 475 269 647 239 568 "},"h":{"ha":808,"x_min":0,"x_max":0,"o":"m 385 0 l 18 0 l 126 72 l 136 533 l 126 944 l 25 985 l 146 1028 l 278 1076 l 267 547 b 476 708 304 642 378 708 b 672 499 617 708 674 576 l 669 369 l 678 72 l 788 0 l 421 0 l 531 72 l 539 369 l 536 472 b 413 592 536 547 481 592 b 267 504 357 592 313 569 l 276 72 "},"i":{"ha":431,"x_min":0,"x_max":0,"o":"m 396 0 l 29 0 l 139 72 l 147 369 l 139 593 l 33 639 l 289 708 l 278 369 l 286 72 m 207 1079 l 342 951 l 207 824 l 72 951 "},"í":{"ha":431,"x_min":0,"x_max":0,"o":"m 396 0 l 29 0 l 139 72 l 147 369 l 139 593 l 33 639 l 289 708 l 278 369 l 286 72 m 267 1000 l 438 1000 l 213 769 l 172 769 "},"î":{"ha":507,"x_min":0,"x_max":0,"o":"m 460 0 l 93 0 l 203 72 l 211 369 l 203 593 l 97 639 l 353 708 l 342 369 l 350 72 m 203 1000 l 331 1000 l 471 769 l 444 769 l 260 896 l 72 769 l 46 769 "},"ì":{"ha":431,"x_min":0,"x_max":0,"o":"m 396 0 l 29 0 l 139 72 l 147 369 l 139 593 l 33 639 l 289 708 l 278 369 l 286 72 m 186 1001 l 281 771 l 240 771 l 15 1001 "},"j":{"ha":390,"x_min":0,"x_max":0,"o":"m 260 56 l 260 54 b -4 -349 258 -117 186 -243 l -8 -342 b 121 42 100 -210 121 -157 l 126 369 l 118 593 l 13 639 l 268 708 l 257 369 l 260 61 m 186 1079 l 321 951 l 186 824 l 51 951 "},"k":{"ha":817,"x_min":0,"x_max":0,"o":"m 25 985 l 146 1028 l 278 1076 l 267 533 l 271 322 l 533 618 l 468 694 l 785 694 l 617 608 l 457 428 l 681 90 l 800 0 l 450 0 l 522 72 l 361 319 l 274 219 l 276 72 l 385 0 l 18 0 l 126 72 l 136 533 l 126 944 "},"l":{"ha":403,"x_min":0,"x_max":0,"o":"m 25 985 l 146 1028 l 278 1076 l 267 533 l 276 72 l 385 3 l 256 0 l 18 0 l 126 72 l 136 533 l 126 944 "},"m":{"ha":1171,"x_min":0,"x_max":0,"o":"m 401 0 l 33 0 l 143 72 l 151 369 l 143 576 l 40 617 l 294 708 l 290 564 b 475 708 321 629 375 708 b 647 569 571 708 626 636 b 839 708 686 640 746 708 b 1035 499 969 708 1036 576 l 1033 369 l 1042 72 l 1150 0 l 786 0 l 894 72 l 903 369 l 900 471 b 786 590 900 546 850 590 b 660 529 739 590 694 567 l 658 369 l 667 72 l 775 0 l 411 0 l 519 72 l 528 369 l 525 471 b 417 592 525 546 481 592 b 288 510 369 592 328 568 l 283 369 l 292 72 m 658 526 b 658 526 658 526 658 526 "},"n":{"ha":824,"x_min":0,"x_max":0,"o":"m 400 0 l 33 0 l 143 72 l 151 369 l 143 576 l 40 617 l 161 660 l 293 708 l 289 561 b 492 708 326 649 397 708 b 688 499 632 708 689 576 l 685 369 l 693 72 l 803 0 l 436 0 l 546 72 l 554 369 l 551 472 b 426 592 551 547 496 592 b 286 510 374 592 325 565 l 282 369 l 290 72 "},"ñ":{"ha":824,"x_min":0,"x_max":0,"o":"m 400 0 l 33 0 l 143 72 l 151 369 l 143 576 l 40 617 l 161 660 l 293 708 l 289 561 b 492 708 326 649 397 708 b 688 499 632 708 689 576 l 685 369 l 693 72 l 803 0 l 436 0 l 546 72 l 554 369 l 551 472 b 426 592 551 547 496 592 b 286 510 374 592 325 565 l 282 369 l 290 72 "},"o":{"ha":838,"x_min":0,"x_max":0,"o":"m 421 -14 b 56 349 194 -14 56 164 b 419 708 56 533 201 708 b 782 347 646 708 782 532 b 421 -14 782 163 640 -14 m 225 374 b 435 53 225 178 303 53 b 613 322 565 53 613 178 b 406 642 613 518 536 642 b 225 374 275 642 225 518 "},"ó":{"ha":838,"x_min":0,"x_max":0,"o":"m 421 -14 b 56 349 194 -14 56 164 b 419 708 56 533 201 708 b 782 347 646 708 782 532 b 421 -14 782 163 640 -14 m 225 374 b 435 53 225 178 303 53 b 613 322 565 53 613 178 b 406 642 613 518 536 642 b 225 374 275 642 225 518 m 464 1000 l 635 1000 l 410 769 l 369 769 "},"ǒ":{"ha":838,"x_min":0,"x_max":0,"o":"m 421 -14 b 56 349 194 -14 56 164 b 419 708 56 533 201 708 b 782 347 646 708 782 532 b 421 -14 782 163 640 -14 m 225 996 l 410 869 l 597 996 l 624 996 l 467 765 l 339 765 l 199 996 m 225 374 b 435 53 225 178 303 53 b 613 322 565 53 613 178 b 406 642 613 518 536 642 b 225 374 275 642 225 518 "},"ô":{"ha":838,"x_min":0,"x_max":0,"o":"m 421 -14 b 56 349 194 -14 56 164 b 419 708 56 533 201 708 b 782 347 646 708 782 532 b 421 -14 782 163 640 -14 m 347 1000 l 475 1000 l 615 769 l 589 769 l 404 896 l 217 769 l 190 769 m 225 374 b 435 53 225 178 303 53 b 613 322 565 53 613 178 b 406 642 613 518 536 642 b 225 374 275 642 225 518 "},"ö":{"ha":838,"x_min":0,"x_max":0,"o":"m 421 -14 b 56 349 194 -14 56 164 b 419 708 56 533 201 708 b 782 347 646 708 782 532 b 421 -14 782 163 640 -14 m 288 947 l 388 851 l 288 753 l 186 851 m 225 374 b 435 53 225 178 303 53 b 613 322 565 53 613 178 b 406 642 613 518 536 642 b 225 374 275 642 225 518 m 551 947 l 651 851 l 551 753 l 450 851 "},"ò":{"ha":838,"x_min":0,"x_max":0,"o":"m 421 -14 b 56 349 194 -14 56 164 b 419 708 56 533 201 708 b 782 347 646 708 782 532 b 421 -14 782 163 640 -14 m 225 374 b 435 53 225 178 303 53 b 613 322 565 53 613 178 b 406 642 613 518 536 642 b 225 374 275 642 225 518 m 399 1001 l 493 771 l 453 771 l 228 1001 "},"p":{"ha":882,"x_min":0,"x_max":0,"o":"m 292 557 b 513 708 318 617 379 708 b 826 364 681 708 826 567 b 458 -14 826 143 658 -14 b 286 26 400 -14 342 0 l 292 -261 l 400 -333 l 33 -333 l 142 -261 l 151 207 l 142 576 l 40 617 l 296 708 m 283 119 b 451 53 328 76 390 53 b 682 328 579 53 682 160 b 464 592 682 496 586 592 b 290 506 399 592 332 563 l 282 207 "},"q":{"ha":825,"x_min":0,"x_max":0,"o":"m 565 -261 l 576 110 b 369 -14 544 53 483 -14 b 56 331 201 -14 56 128 b 417 708 56 551 217 708 b 615 657 482 708 553 692 l 728 708 l 710 204 l 717 -261 l 825 -333 l 456 -333 m 200 367 b 425 103 200 199 303 103 b 578 172 483 103 538 126 l 579 204 l 576 593 b 424 642 532 624 475 642 b 200 367 296 642 200 535 "},"r":{"ha":596,"x_min":0,"x_max":0,"o":"m 550 536 b 426 586 508 574 471 586 b 286 500 382 586 329 572 l 282 369 l 290 72 l 400 0 l 33 0 l 143 72 l 151 369 l 143 576 l 40 617 l 161 660 l 293 708 l 288 546 b 467 708 324 653 392 708 b 550 685 490 708 522 703 l 550 536 "},"s":{"ha":582,"x_min":0,"x_max":0,"o":"m 65 514 b 313 708 65 628 160 708 b 488 671 385 708 443 690 l 488 465 l 389 629 b 310 640 361 636 333 640 b 193 540 231 640 193 592 b 258 446 193 494 222 465 b 411 378 294 426 369 400 b 522 199 460 350 522 293 b 274 -14 522 57 393 -14 b 72 32 199 -14 114 15 l 72 232 l 172 74 b 278 54 207 63 246 54 b 396 167 346 54 396 104 b 328 268 396 224 354 256 b 164 343 304 279 210 315 b 65 514 103 381 65 442 "},"t":{"ha":531,"x_min":0,"x_max":0,"o":"m 153 393 l 147 600 l 14 600 l 14 603 l 146 694 l 304 869 l 300 694 l 482 694 l 482 600 l 297 600 l 292 393 l 297 190 b 383 103 299 138 331 103 b 478 150 425 103 461 125 l 485 146 b 311 -14 468 57 397 -14 b 149 143 224 -14 147 57 "},"u":{"ha":783,"x_min":0,"x_max":0,"o":"m 397 617 l 518 660 l 650 708 l 639 369 l 647 118 l 750 78 l 629 35 l 497 -14 l 501 124 b 303 -14 464 42 392 -14 b 125 192 157 -14 124 114 l 128 369 l 119 576 l 17 617 l 138 660 l 269 708 l 258 369 l 261 222 b 374 103 265 147 306 103 b 503 178 421 103 463 128 l 508 369 l 500 576 "},"ú":{"ha":783,"x_min":0,"x_max":0,"o":"m 397 617 l 518 660 l 650 708 l 639 369 l 647 118 l 750 78 l 629 35 l 497 -14 l 501 124 b 303 -14 464 42 392 -14 b 125 192 157 -14 124 114 l 128 369 l 119 576 l 17 617 l 138 660 l 269 708 l 258 369 l 261 222 b 374 103 265 147 306 103 b 503 178 421 103 463 128 l 508 369 l 500 576 m 436 1000 l 607 1000 l 382 769 l 342 769 "},"û":{"ha":783,"x_min":0,"x_max":0,"o":"m 397 617 l 518 660 l 650 708 l 639 369 l 647 118 l 750 78 l 629 35 l 497 -14 l 501 124 b 303 -14 464 42 392 -14 b 125 192 157 -14 124 114 l 128 369 l 119 576 l 17 617 l 138 660 l 269 708 l 258 369 l 261 222 b 374 103 265 147 306 103 b 503 178 421 103 463 128 l 508 369 l 500 576 m 331 1000 l 458 1000 l 599 769 l 572 769 l 388 896 l 200 769 l 174 769 "},"ü":{"ha":783,"x_min":0,"x_max":0,"o":"m 397 617 l 518 660 l 650 708 l 639 369 l 647 118 l 750 78 l 629 35 l 497 -14 l 501 124 b 303 -14 464 42 392 -14 b 125 192 157 -14 124 114 l 128 369 l 119 576 l 17 617 l 138 660 l 269 708 l 258 369 l 261 222 b 374 103 265 147 306 103 b 503 178 421 103 463 128 l 508 369 l 500 576 m 260 947 l 360 851 l 260 753 l 158 851 m 524 947 l 624 851 l 524 753 l 422 851 "},"ù":{"ha":783,"x_min":0,"x_max":0,"o":"m 397 617 l 518 660 l 650 708 l 639 369 l 647 118 l 750 78 l 629 35 l 497 -14 l 501 124 b 303 -14 464 42 392 -14 b 125 192 157 -14 124 114 l 128 369 l 119 576 l 17 617 l 138 660 l 269 708 l 258 369 l 261 222 b 374 103 265 147 306 103 b 503 178 421 103 463 128 l 508 369 l 500 576 m 371 1001 l 465 771 l 425 771 l 200 1001 "},"v":{"ha":743,"x_min":0,"x_max":0,"o":"m 89 614 l -50 694 l 332 694 l 250 614 l 424 231 l 581 614 l 494 694 l 793 694 l 653 614 l 392 -14 l 389 -14 "},"w":{"ha":985,"x_min":0,"x_max":0,"o":"m 88 614 l -50 694 l 329 694 l 239 614 l 356 283 l 469 613 l 439 694 l 586 694 l 731 292 l 832 614 l 738 694 l 1035 694 l 901 614 l 699 -10 l 697 -10 l 506 513 l 321 -10 l 318 -10 "},"x":{"ha":786,"x_min":0,"x_max":0,"o":"m 4 694 l 361 694 l 296 614 l 408 444 l 533 614 l 475 694 l 728 694 l 608 604 l 450 389 l 664 90 l 781 0 l 424 0 l 489 82 l 358 276 l 214 82 l 274 0 l 21 0 l 140 90 l 317 331 l 121 604 "},"y":{"ha":740,"x_min":0,"x_max":0,"o":"m 247 -156 l 349 78 l 93 614 l -46 694 l 335 694 l 251 614 l 419 244 l 571 614 l 485 694 l 790 694 l 656 614 l 274 -300 l 25 -300 "},"z":{"ha":701,"x_min":0,"x_max":0,"o":"m 660 694 l 660 689 l 231 58 l 500 63 l 649 264 l 633 22 l 632 0 l 42 0 l 42 6 l 468 636 l 208 632 l 82 444 l 82 694 "}," ":{"ha":69,"x_min":0,"x_max":0,"o":""},".":{"ha":369,"x_min":0,"x_max":0,"o":"m 314 114 l 185 -12 l 56 114 l 185 239 "},",":{"ha":360,"x_min":0,"x_max":0,"o":"m 19 -257 l 36 -257 l 318 172 l 119 172 "},":":{"ha":349,"x_min":0,"x_max":0,"o":"m 304 114 l 175 -12 l 44 114 l 175 239 m 175 697 l 304 572 l 175 446 l 44 572 "},";":{"ha":419,"x_min":0,"x_max":0,"o":"m 53 -257 l 69 -257 l 351 172 l 153 172 m 246 697 l 375 572 l 246 446 l 115 572 "},"…":{"ha":340,"x_min":0,"x_max":0,"o":"m 314 114 l 185 -12 l 56 114 l 185 239 "},"!":{"ha":383,"x_min":0,"x_max":0,"o":"m 321 114 l 192 -12 l 63 114 l 192 239 m 308 1029 l 196 306 l 190 306 l 78 1029 "},"¡":{"ha":383,"x_min":0,"x_max":0,"o":"m 63 694 l 192 821 l 321 694 l 192 569 m 188 503 l 193 503 l 306 -221 l 75 -221 "},"?":{"ha":644,"x_min":0,"x_max":0,"o":"m 394 114 l 265 -12 l 136 114 l 265 239 m 63 993 b 257 1028 124 1017 186 1028 b 582 785 456 1028 582 936 b 300 331 582 556 300 569 l 300 307 l 215 307 l 215 343 b 418 814 215 610 418 636 b 253 957 418 921 344 957 b 207 954 238 957 222 956 l 63 717 "},"¿":{"ha":644,"x_min":0,"x_max":0,"o":"m 250 901 l 379 1028 l 508 901 l 379 776 m 63 231 b 344 685 63 460 344 446 l 344 708 l 429 708 l 429 672 b 226 201 429 406 226 379 b 392 58 226 94 300 58 b 438 61 407 58 422 60 l 582 299 l 582 22 b 388 -12 521 -1 458 -12 b 63 231 189 -12 63 79 "},"·":{"ha":369,"x_min":0,"x_max":0,"o":"m 314 369 l 185 243 l 56 369 l 185 494 "},"•":{"ha":528,"x_min":0,"x_max":0,"o":"m 465 371 l 264 174 l 63 371 l 264 565 "},"*":{"ha":839,"x_min":0,"x_max":0,"o":""},"#":{"ha":976,"x_min":0,"x_max":0,"o":"m 418 679 l 600 679 l 656 950 l 751 950 l 696 679 l 872 679 l 872 592 l 678 592 l 633 371 l 826 371 l 826 283 l 615 283 l 557 0 l 460 0 l 518 283 l 338 283 l 279 0 l 182 0 l 240 283 l 63 283 l 63 371 l 258 371 l 304 592 l 117 592 l 117 679 l 322 679 l 378 950 l 474 950 m 536 371 l 582 592 l 400 592 l 356 371 "},"/":{"ha":654,"x_min":0,"x_max":0,"o":"m 171 0 l 32 0 l 485 1014 l 622 1014 "},"\\":{"ha":839,"x_min":0,"x_max":0,"o":""},"-":{"ha":490,"x_min":0,"x_max":0,"o":"m 431 400 l 60 400 l 60 532 l 431 532 "},"–":{"ha":817,"x_min":0,"x_max":0,"o":"m 757 411 l 60 411 l 60 517 l 757 517 "},"—":{"ha":839,"x_min":0,"x_max":0,"o":""},"_":{"ha":839,"x_min":0,"x_max":0,"o":""},"(":{"ha":839,"x_min":0,"x_max":0,"o":""},")":{"ha":839,"x_min":0,"x_max":0,"o":""},"{":{"ha":839,"x_min":0,"x_max":0,"o":""},"}":{"ha":839,"x_min":0,"x_max":0,"o":""},"[":{"ha":839,"x_min":0,"x_max":0,"o":""},"]":{"ha":839,"x_min":0,"x_max":0,"o":""},"‚":{"ha":360,"x_min":0,"x_max":0,"o":"m 19 -257 l 36 -257 l 318 172 l 119 172 "},"„":{"ha":360,"x_min":0,"x_max":0,"o":"m 19 -257 l 36 -257 l 318 172 l 119 172 "},"“":{"ha":839,"x_min":0,"x_max":0,"o":""},"”":{"ha":839,"x_min":0,"x_max":0,"o":""},"‘":{"ha":292,"x_min":0,"x_max":0,"o":"m 235 1054 l 204 1054 l 57 681 l 235 681 "},"’":{"ha":292,"x_min":0,"x_max":0,"o":"m 58 681 l 89 681 l 236 1054 l 58 1054 "},"«":{"ha":732,"x_min":0,"x_max":0,"o":"m 664 658 l 550 369 l 669 68 l 661 68 l 361 369 l 657 658 m 358 658 l 365 658 l 251 369 l 371 68 l 363 68 l 63 369 "},"»":{"ha":735,"x_min":0,"x_max":0,"o":"m 374 369 l 74 68 l 65 68 l 185 369 l 71 658 l 78 658 m 483 369 l 369 658 l 376 658 l 672 369 l 372 68 l 364 68 "},"‹":{"ha":433,"x_min":0,"x_max":0,"o":"m 365 658 l 251 369 l 371 68 l 363 68 l 63 369 l 358 658 "},"›":{"ha":433,"x_min":0,"x_max":0,"o":"m 371 369 l 71 68 l 63 68 l 182 369 l 68 658 l 75 658 "},"\"":{"ha":839,"x_min":0,"x_max":0,"o":""},"'":{"ha":292,"x_min":0,"x_max":0,"o":"m 58 681 l 89 681 l 236 1054 l 58 1054 "},"|":{"ha":176,"x_min":0,"x_max":0,"o":"m 107 1063 l 107 -333 l 69 -333 l 69 1063 "},"$":{"ha":839,"x_min":0,"x_max":0,"o":""},"€":{"ha":839,"x_min":0,"x_max":0,"o":""},"£":{"ha":839,"x_min":0,"x_max":0,"o":""},"¥":{"ha":839,"x_min":0,"x_max":0,"o":""},"+":{"ha":839,"x_min":0,"x_max":0,"o":""},"−":{"ha":839,"x_min":0,"x_max":0,"o":""},"×":{"ha":839,"x_min":0,"x_max":0,"o":""},"÷":{"ha":839,"x_min":0,"x_max":0,"o":""},"=":{"ha":839,"x_min":0,"x_max":0,"o":""},"≠":{"ha":839,"x_min":0,"x_max":0,"o":""},">":{"ha":839,"x_min":0,"x_max":0,"o":""},"<":{"ha":839,"x_min":0,"x_max":0,"o":""},"≥":{"ha":839,"x_min":0,"x_max":0,"o":""},"≤":{"ha":839,"x_min":0,"x_max":0,"o":""},"±":{"ha":839,"x_min":0,"x_max":0,"o":""},"≈":{"ha":839,"x_min":0,"x_max":0,"o":""},"~":{"ha":839,"x_min":0,"x_max":0,"o":""},"^":{"ha":839,"x_min":0,"x_max":0,"o":""},"%":{"ha":5564,"x_min":0,"x_max":0,"o":"m 599 274 b 331 539 432 274 331 404 b 597 803 331 675 438 803 b 863 538 763 803 863 674 b 599 274 863 403 760 274 m 50 507 b 599 1028 50 814 267 1028 b 885 951 707 1028 803 997 l 885 701 l 758 915 b 594 950 703 938 650 950 b 197 546 361 950 197 790 b 578 144 197 304 351 144 b 888 299 735 144 840 235 l 899 293 b 528 -14 871 153 761 -14 b 50 507 256 -14 50 190 m 468 556 b 608 332 468 419 518 332 b 725 521 692 332 725 419 b 589 744 725 658 675 744 b 468 556 503 744 468 658 m 1063 -214 l 1074 207 l 1063 583 l 926 692 l 1569 692 l 1569 463 l 1453 624 l 1226 625 l 1218 236 l 1428 238 l 1518 372 l 1518 29 l 1428 164 l 1218 165 l 1226 -251 l 1456 -250 l 1572 -89 l 1572 -322 l 926 -322 m 1696 108 l 1788 897 l 1654 1014 l 1950 1014 l 2224 299 l 2485 1014 l 2779 1014 l 2649 906 l 2772 108 l 2922 0 l 2493 0 l 2610 108 l 2500 821 l 2192 -14 l 2186 -14 l 1856 811 l 1778 108 l 1899 0 l 1550 0 m 2974 -214 l 2985 207 l 2974 583 l 2838 692 l 3481 692 l 3481 463 l 3364 624 l 3138 625 l 3129 236 l 3339 238 l 3429 372 l 3429 29 l 3339 164 l 3129 165 l 3138 -251 l 3367 -250 l 3483 -89 l 3483 -322 l 2838 -322 m 3319 1014 l 4144 1014 l 4144 738 l 4018 940 l 3814 944 l 3801 533 l 3813 108 l 3949 0 l 3510 0 l 3646 108 l 3657 533 l 3644 944 l 3446 940 l 3319 738 m 4044 -214 l 4056 207 l 4044 583 l 3908 692 l 4551 692 l 4551 463 l 4435 624 l 4208 625 l 4200 236 l 4410 238 l 4500 372 l 4500 29 l 4410 164 l 4200 165 l 4208 -251 l 4438 -250 l 4554 -89 l 4554 -322 l 3908 -322 m 4682 108 l 4693 533 l 4682 906 l 4546 1014 l 5024 1014 b 5357 760 5210 1014 5357 928 b 5093 475 5357 639 5286 514 l 5401 119 l 5558 0 l 5164 0 l 5211 108 l 4925 465 l 4839 465 l 4849 108 l 4985 0 l 4546 0 m 4951 535 b 5188 753 5088 535 5188 606 b 4975 943 5188 869 5104 943 l 4850 943 l 4838 535 "},"‰":{"ha":839,"x_min":0,"x_max":0,"o":""},"↑":{"ha":819,"x_min":0,"x_max":0,"o":"m 757 539 l 443 881 l 443 189 l 365 189 l 365 879 l 63 543 l 63 672 l 404 1028 l 757 661 "},"↗":{"ha":753,"x_min":0,"x_max":0,"o":"m 690 1010 l 672 517 l 579 428 l 611 879 l 114 399 l 60 456 l 558 936 l 94 924 l 182 1008 "},"→":{"ha":964,"x_min":0,"x_max":0,"o":"m 413 0 l 754 314 l 63 314 l 63 392 l 753 392 l 417 694 l 546 694 l 901 353 l 535 0 "},"↘":{"ha":753,"x_min":0,"x_max":0,"o":"m 94 86 l 558 74 l 60 554 l 114 611 l 611 131 l 579 582 l 672 493 l 690 0 l 182 1 "},"↓":{"ha":819,"x_min":0,"x_max":0,"o":"m 404 -14 l 63 342 l 63 471 l 365 135 l 365 825 l 443 825 l 443 133 l 757 475 l 757 353 "},"↙":{"ha":753,"x_min":0,"x_max":0,"o":"m 63 0 l 81 493 l 174 582 l 142 131 l 639 611 l 693 554 l 194 74 l 658 86 l 571 1 "},"←":{"ha":964,"x_min":0,"x_max":0,"o":"m 63 353 l 418 694 l 547 694 l 211 392 l 901 392 l 901 314 l 210 314 l 551 0 l 429 0 "},"↖":{"ha":753,"x_min":0,"x_max":0,"o":"m 658 928 l 194 940 l 693 460 l 639 403 l 142 883 l 174 432 l 81 521 l 63 1014 l 571 1013 "},"̈":{"ha":0,"x_min":0,"x_max":0,"o":"m 210 851 l 110 753 l 8 851 l 110 947 m 374 947 l 474 851 l 374 753 l 272 851 "},"̀":{"ha":0,"x_min":0,"x_max":0,"o":"m 392 771 l 351 771 l 126 1001 l 297 1001 "},"́":{"ha":0,"x_min":0,"x_max":0,"o":"m 646 1000 l 421 769 l 381 769 l 475 1000 "},"̂":{"ha":0,"x_min":0,"x_max":0,"o":"m 588 769 l 403 896 l 215 769 l 189 769 l 346 1000 l 474 1000 l 614 769 "},"̌":{"ha":0,"x_min":0,"x_max":0,"o":"m 236 996 l 421 869 l 608 996 l 635 996 l 478 765 l 350 765 l 210 996 "},"̃":{"ha":0,"x_min":0,"x_max":0,"o":""},"̧":{"ha":0,"x_min":0,"x_max":0,"o":"m 243 -292 b 115 -217 178 -292 132 -249 l 117 -215 b 201 -233 139 -226 172 -233 b 283 -178 247 -233 283 -215 b 215 -126 283 -146 256 -126 b 164 -135 204 -126 189 -128 l 221 4 l 279 4 l 247 -82 b 369 -181 304 -81 369 -114 b 243 -292 369 -240 317 -292 "}}}
